<?xml version="1.0" encoding="UTF-8" standalone="no"?><!DOCTYPE svg PUBLIC "-//W3C//DTD SVG 1.1//EN" "http://www.w3.org/Graphics/SVG/1.1/DTD/svg11.dtd"><svg width="100%" height="100%" viewBox="0 0 96 30" version="1.1" xmlns="http://www.w3.org/2000/svg" xmlns:xlink="http://www.w3.org/1999/xlink" xml:space="preserve" xmlns:serif="http://www.serif.com/" style="fill-rule:evenodd;clip-rule:evenodd;stroke-linejoin:round;stroke-miterlimit:2;"><g><g id="GrayscaleDBG"><g><path d="M11.194,16.644l-7.465,-0c-0.013,-0 -0.024,-0.009 -0.027,-0.022c-0.003,-0.013 0.003,-0.026 0.014,-0.032l6.63,-3.424c0.004,-0.002 0.008,-0.003 0.013,-0.003l7.465,0c0.013,0 0.024,0.009 0.027,0.022c0.003,0.013 -0.003,0.026 -0.014,0.032l-6.63,3.424c-0.004,0.002 -0.008,0.003 -0.013,0.003Zm-4.959,-7.533l-0.444,0c-1.014,0 -1.493,0.479 -1.493,1.522l0,0.958c0,1.014 0.451,1.437 1.493,1.437l2.925,0l-6.31,3.245c-1.557,-0.74 -2.392,-2.275 -2.392,-4.456l0,-2.085c0,-2.1 0.9,-3.566 2.625,-4.216l3.596,3.596Zm8.649,11.779l0.572,0c0.986,0 1.493,-0.479 1.493,-1.522l0,-1.155c0,-1.014 -0.423,-1.437 -1.465,-1.437l-2.654,0l6.178,-3.165c1.463,0.768 2.253,2.271 2.253,4.376l0,2.282c0,2.139 -0.949,3.62 -2.746,4.251l-3.631,-3.631Z" style="fill:#dadada;"/><path d="M11.635,12.319l4.54,-2.334c0.169,-0.113 0.254,-0.225 0.254,-0.423l0,-0.225c0,-0.141 -0.113,-0.225 -0.282,-0.225l-8.907,0l-3.973,-3.973l15.755,0c1.55,0 2.226,0.676 2.254,2.142l0,2.705c0,1.331 -0.236,1.798 -1.287,2.334l-8.353,0Zm-1.743,5.17l-4.933,2.527c-0.197,0.085 -0.254,0.225 -0.254,0.423l0,0.225c0,0.141 0.113,0.225 0.282,0.225l8.892,0l3.973,3.973l-15.627,0c-1.522,0 -2.226,-0.676 -2.226,-2.142l0,-2.733c0,-1.381 0.197,-1.832 1.324,-2.367l0.256,-0.132l8.311,0Zm-0.639,-2.215l-2.871,0c-0.013,-0 -0.024,-0.009 -0.027,-0.022c-0.003,-0.013 0.003,-0.026 0.014,-0.032l1.327,-0.685c0.004,-0.002 0.008,-0.003 0.013,-0.003l2.98,0l2.648,-1.366c0.004,-0.002 0.008,-0.003 0.013,-0.003l1.493,0c0.013,0 0.024,0.009 0.027,0.022c0.003,0.013 -0.003,0.026 -0.014,0.032l-2.551,1.316l2.87,0c0.013,0 0.024,0.009 0.027,0.022c0.003,0.013 -0.003,0.026 -0.014,0.032l-1.327,0.685c-0.004,0.002 -0.008,0.003 -0.013,0.003l-2.98,0l-2.648,1.366c-0.004,0.002 -0.008,0.003 -0.013,0.003l-1.493,-0c-0.013,-0 -0.024,-0.009 -0.027,-0.022c-0.003,-0.013 0.003,-0.026 0.014,-0.032l2.551,-1.316Z" style="fill:#fff;"/></g></g><g><path d="M26.139,16.441l6.117,0c0.162,0 0.254,0.081 0.254,0.254l0,1.12c0,0.162 -0.092,0.254 -0.254,0.254l-5.782,0c-0.415,0 -0.612,0.196 -0.612,0.623l0,0.392c0,0.415 0.185,0.589 0.612,0.589l4.317,0c1.293,0 2.02,0.739 2.02,2.031l0,0.935c0,1.189 -0.716,1.881 -2.043,1.881l-6.394,0c-0.173,0 -0.254,-0.081 -0.254,-0.254l0,-1.12c0,-0.162 0.081,-0.254 0.254,-0.254l6.059,0c0.404,0 0.612,-0.196 0.612,-0.623l0,-0.473c0,-0.415 -0.173,-0.589 -0.6,-0.589l-4.328,0c-1.293,0 -2.008,-0.739 -2.008,-2.031l0,-0.854c0,-1.189 0.704,-1.881 2.031,-1.881Zm7.502,0l1.616,0c0.138,0 0.208,0.035 0.277,0.138l3.035,4.028l3.047,-4.028c0.081,-0.104 0.15,-0.138 0.277,-0.138l1.547,0c0.138,0 0.185,0.115 0.104,0.231l-4.143,5.378l0,2.216c0,0.162 -0.092,0.254 -0.265,0.254l-1.235,0c-0.173,0 -0.265,-0.092 -0.265,-0.254l0,-2.216l-4.109,-5.378c-0.081,-0.115 -0.023,-0.231 0.115,-0.231Zm12.361,0l6.117,0c0.162,0 0.254,0.081 0.254,0.254l0,1.12c0,0.162 -0.092,0.254 -0.254,0.254l-5.782,0c-0.415,0 -0.612,0.196 -0.612,0.623l0,0.392c0,0.415 0.185,0.589 0.612,0.589l4.317,0c1.293,0 2.02,0.739 2.02,2.031l0,0.935c0,1.189 -0.716,1.881 -2.043,1.881l-6.394,0c-0.173,0 -0.254,-0.081 -0.254,-0.254l0,-1.12c0,-0.162 0.081,-0.254 0.254,-0.254l6.059,0c0.404,0 0.612,-0.196 0.612,-0.623l0,-0.473c0,-0.415 -0.173,-0.589 -0.6,-0.589l-4.328,0c-1.293,0 -2.008,-0.739 -2.008,-2.031l0,-0.854c0,-1.189 0.704,-1.881 2.031,-1.881Zm7.744,0l9.026,0c0.173,0 0.265,0.081 0.265,0.254l0,1.131c0,0.173 -0.092,0.254 -0.265,0.254l-3.636,0l0,6.186c0,0.173 -0.069,0.254 -0.242,0.254l-1.258,0c-0.162,0 -0.254,-0.081 -0.254,-0.254l0,-6.186l-3.636,0c-0.162,0 -0.254,-0.081 -0.254,-0.254l0,-1.131c0,-0.173 0.092,-0.254 0.254,-0.254Zm13.238,0l5.078,0c0.162,0 0.254,0.081 0.254,0.254l0,1.12c0,0.162 -0.092,0.254 -0.254,0.254l-5.067,0c-1.189,0 -1.5,0.335 -1.5,1.547l0,0.058l6.498,0c0.162,0 0.254,0.081 0.254,0.254l0,1.027c0,0.173 -0.092,0.254 -0.254,0.254l-6.498,0l0,0.138c0,1.212 0.312,1.547 1.5,1.547l5.067,0c0.162,0 0.254,0.092 0.254,0.254l0,1.12c0,0.173 -0.092,0.254 -0.254,0.254l-5.078,0c-2.343,0 -3.232,-0.843 -3.232,-3.047l0,-1.985c0,-2.204 0.889,-3.047 3.232,-3.047Zm7.675,0l1.304,0c0.681,0 0.935,0.138 1.235,0.877l2.366,5.54c0.035,0.069 0.092,0.104 0.162,0.104l0.138,0c0.081,0 0.138,-0.035 0.162,-0.104l2.354,-5.54c0.289,-0.739 0.531,-0.877 1.223,-0.877l1.281,0c0.796,0 1.016,0.3 1.016,1.2l0,6.625c0,0.173 -0.092,0.254 -0.265,0.254l-1.212,0c-0.162,0 -0.254,-0.081 -0.254,-0.254l0,-6.025c0,-0.081 -0.023,-0.115 -0.081,-0.115l-0.104,0c-0.092,0 -0.138,0.023 -0.162,0.092l-2.228,5.171c-0.346,0.866 -0.727,1.131 -1.477,1.131l-0.658,0c-0.75,0 -1.12,-0.265 -1.477,-1.131l-2.251,-5.171c-0.035,-0.069 -0.069,-0.092 -0.15,-0.092l-0.104,0c-0.069,0 -0.104,0.035 -0.104,0.115l0,6.025c0,0.173 -0.081,0.254 -0.254,0.254l-1.212,0c-0.173,0 -0.254,-0.081 -0.254,-0.254l0,-6.625c0,-0.912 0.208,-1.2 1.004,-1.2Zm14.669,0l6.117,0c0.162,0 0.254,0.081 0.254,0.254l0,1.12c0,0.162 -0.092,0.254 -0.254,0.254l-5.782,0c-0.415,0 -0.612,0.196 -0.612,0.623l0,0.392c0,0.415 0.185,0.589 0.612,0.589l4.317,0c1.293,0 2.02,0.739 2.02,2.031l0,0.935c0,1.189 -0.716,1.881 -2.043,1.881l-6.394,0c-0.173,0 -0.254,-0.081 -0.254,-0.254l0,-1.12c0,-0.162 0.081,-0.254 0.254,-0.254l6.059,0c0.404,0 0.612,-0.196 0.612,-0.623l0,-0.473c0,-0.415 -0.173,-0.589 -0.6,-0.589l-4.328,0c-1.293,0 -2.008,-0.739 -2.008,-2.031l0,-0.854c0,-1.189 0.704,-1.881 2.031,-1.881Z" style="fill:#fff;"/><path d="M24.591,5.515l7.466,0c0.636,0 0.913,0.277 0.925,0.878l0,1.109c0,0.566 -0.104,0.751 -0.578,0.982l-6.114,3.132c-0.081,0.035 -0.104,0.092 -0.104,0.173l0,0.092c0,0.058 0.046,0.092 0.116,0.092l6.356,0c0.162,0 0.254,0.092 0.254,0.254l0,1.121c0,0.173 -0.092,0.254 -0.254,0.254l-7.489,0c-0.624,0 -0.913,-0.277 -0.913,-0.878l0,-1.121c0,-0.566 0.081,-0.751 0.543,-0.971l6.091,-3.132c0.069,-0.046 0.104,-0.092 0.104,-0.173l0,-0.092c0,-0.058 -0.046,-0.092 -0.116,-0.092l-6.287,0c-0.173,0 -0.254,-0.092 -0.254,-0.254l0,-1.121c0,-0.173 0.081,-0.254 0.254,-0.254Zm9.257,0l1.618,0c0.139,0 0.208,0.035 0.277,0.139l3.039,4.033l3.051,-4.033c0.081,-0.104 0.15,-0.139 0.277,-0.139l1.549,0c0.139,0 0.185,0.116 0.104,0.231l-4.149,5.386l0,2.219c0,0.162 -0.092,0.254 -0.266,0.254l-1.237,0c-0.173,0 -0.266,-0.092 -0.266,-0.254l0,-2.219l-4.114,-5.386c-0.081,-0.116 -0.023,-0.231 0.116,-0.231Zm11.892,0l1.04,0c0.832,0 0.971,0.173 1.341,0.682l4.253,5.64c0.035,0.058 0.081,0.081 0.15,0.081l0.104,0c0.058,0 0.092,-0.035 0.092,-0.116l0,-6.033c0,-0.173 0.081,-0.254 0.254,-0.254l1.237,0c0.173,0 0.254,0.081 0.254,0.254l0,6.634c0,0.913 -0.312,1.202 -1.04,1.202l-1.029,0c-0.832,0 -0.971,-0.173 -1.329,-0.682l-4.265,-5.64c-0.046,-0.058 -0.081,-0.081 -0.15,-0.081l-0.104,0c-0.069,0 -0.092,0.035 -0.092,0.116l0,6.033c0,0.173 -0.092,0.254 -0.254,0.254l-1.237,0c-0.173,0 -0.254,-0.081 -0.254,-0.254l0,-6.634c0,-0.913 0.3,-1.202 1.029,-1.202Zm14.712,0l0.682,0c0.601,0 0.948,0.173 1.329,0.878l3.825,6.946c0.081,0.162 0.046,0.266 -0.139,0.266l-1.468,0c-0.15,0 -0.22,-0.035 -0.266,-0.139l-0.763,-1.41l-5.536,0l-0.751,1.41c-0.058,0.104 -0.116,0.139 -0.266,0.139l-1.514,0c-0.185,0 -0.22,-0.104 -0.139,-0.266l3.791,-6.946c0.37,-0.705 0.728,-0.878 1.213,-0.878Zm-1.526,5.039l3.906,0l-1.791,-3.317c-0.035,-0.058 -0.081,-0.081 -0.139,-0.081l-0.069,0c-0.058,0 -0.092,0.023 -0.127,0.081l-1.78,3.317Zm8.702,-5.039l6.195,0c1.768,0 2.485,0.821 2.485,2.369l0,0.867c0,1.56 -0.717,2.415 -2.485,2.415l-4.785,0l0,2.184c0,0.173 -0.081,0.254 -0.254,0.254l-1.248,0c-0.173,0 -0.254,-0.081 -0.254,-0.254l0,-7.489c0,-0.231 0.116,-0.347 0.347,-0.347Zm1.41,4.057l4.426,0c0.786,0 1.075,-0.312 1.075,-0.994l0,-0.439c0,-0.693 -0.289,-1.005 -1.075,-1.005l-4.276,0c-0.104,0 -0.15,0.046 -0.15,0.139l0,2.3Zm10.32,-4.057l6.125,0c0.162,0 0.254,0.081 0.254,0.254l0,1.121c0,0.162 -0.092,0.254 -0.254,0.254l-5.79,0c-0.416,0 -0.613,0.196 -0.613,0.624l0,0.393c0,0.416 0.185,0.589 0.613,0.589l4.322,0c1.294,0 2.022,0.74 2.022,2.034l0,0.936c0,1.19 -0.717,1.884 -2.046,1.884l-6.403,0c-0.173,0 -0.254,-0.081 -0.254,-0.254l0,-1.121c0,-0.162 0.081,-0.254 0.254,-0.254l6.067,0c0.404,0 0.613,-0.196 0.613,-0.624l0,-0.474c0,-0.416 -0.173,-0.589 -0.601,-0.589l-4.334,0c-1.294,0 -2.011,-0.74 -2.011,-2.034l0,-0.855c0,-1.19 0.705,-1.884 2.034,-1.884Zm11.153,0l5.085,0c0.162,0 0.254,0.081 0.254,0.254l0,1.121c0,0.162 -0.092,0.254 -0.254,0.254l-5.074,0c-1.19,0 -1.502,0.335 -1.502,1.549l0,0.058l6.507,0c0.162,0 0.254,0.081 0.254,0.254l0,1.029c0,0.173 -0.092,0.254 -0.254,0.254l-6.507,0l0,0.139c0,1.213 0.312,1.549 1.502,1.549l5.074,0c0.162,0 0.254,0.092 0.254,0.254l0,1.121c0,0.173 -0.092,0.254 -0.254,0.254l-5.085,0c-2.346,0 -3.236,-0.844 -3.236,-3.051l0,-1.988c0,-2.207 0.89,-3.051 3.236,-3.051Z" style="fill:#fff;"/></g></g></svg>